<svg xmlns="http://www.w3.org/2000/svg" viewBox="0 0 64 64">
  <defs>
    <linearGradient id="bg" x1="8" y1="6" x2="57" y2="59" gradientUnits="userSpaceOnUse">
      <stop stop-color="#fff8fc"/>
      <stop offset=".52" stop-color="#f5effb"/>
      <stop offset="1" stop-color="#e6f2fb"/>
    </linearGradient>
    <linearGradient id="cloud" x1="15" y1="21" x2="50" y2="48" gradientUnits="userSpaceOnUse">
      <stop stop-color="#fff"/>
      <stop offset="1" stop-color="#f2effc"/>
    </linearGradient>
  </defs>
  <rect x="2" y="2" width="60" height="60" rx="19" fill="url(#bg)" stroke="#fff" stroke-width="2"/>
  <path d="M17.2 47.2c-6 0-10.4-4.3-10.4-9.7 0-4.5 3.1-8.2 7.6-9.4 1-7.3 6.8-12.8 14.4-12.8 6.5 0 12 4 13.9 9.9 6.3.3 11.2 5.1 11.2 11.1 0 6.1-5.1 10.9-11.8 10.9Z" fill="url(#cloud)" stroke="#9a82c1" stroke-width="2.8" stroke-linecap="round" stroke-linejoin="round"/>
  <path d="M18.9 34.3c1 3.3 3.6 5.5 6.8 5.5 2.4 0 4.5-1.1 5.8-3 1.2 1.5 3 2.4 5 2.4 2.3 0 4.3-1.2 5.5-3" fill="none" stroke="#9a82c1" stroke-width="2.4" stroke-linecap="round"/>
  <circle cx="19.7" cy="29" r="2.5" fill="#f2bfd4"/>
  <circle cx="40.1" cy="28.8" r="2.5" fill="#b8d8f5"/>
  <path d="m48.9 10 .9 2.4 2.5.9-2.5.9-.9 2.5-.9-2.5-2.5-.9 2.5-.9Z" fill="#cdbcf0" stroke="#fff" stroke-width=".8"/>
</svg>
